<svg  viewBox="0 0 29 29" fill="none" xmlns="http://www.w3.org/2000/svg">
<path fill-rule="evenodd" clip-rule="evenodd" d="M14.5066 0C6.51531 0 0 6.50609 0 14.496C0 22.486 6.51663 29 14.5066 29C22.4965 29 29 22.486 29 14.496C29 6.50609 22.4965 0 14.5066 0ZM14.5066 2.63564C16.0647 2.63304 17.608 2.93806 19.048 3.53321C20.488 4.12836 21.7964 5.00193 22.898 6.10383C23.9997 7.20572 24.873 8.51426 25.4678 9.95439C26.0626 11.3945 26.3673 12.9379 26.3644 14.496C26.3675 16.0546 26.063 17.5985 25.4683 19.0391C24.8736 20.4798 24.0005 21.7889 22.8989 22.8914C21.7973 23.994 20.489 24.8683 19.0488 25.4643C17.6087 26.0602 16.0651 26.3661 14.5066 26.3644C12.9474 26.3663 11.4031 26.0606 9.96213 25.4649C8.52119 24.8691 7.21191 23.995 6.10924 22.8926C5.00658 21.7902 4.13219 20.4811 3.53614 19.0403C2.94009 17.5995 2.63408 16.0553 2.63564 14.496C2.63564 7.93065 7.9412 2.63564 14.5066 2.63564ZM14.4855 5.25284C14.3113 5.25455 14.1392 5.29077 13.9791 5.35942C13.819 5.42806 13.6741 5.52777 13.5528 5.65277C13.4314 5.77777 13.3361 5.92558 13.2723 6.08766C13.2084 6.24973 13.1774 6.42286 13.1809 6.59702V14.496C13.1816 14.6695 13.2165 14.841 13.2837 15.0009C13.3509 15.1608 13.4489 15.3058 13.5723 15.4277L18.8435 20.7017C18.9655 20.8271 19.1112 20.9271 19.2721 20.9957C19.4331 21.0642 19.6061 21.1001 19.7811 21.1011C19.956 21.1021 20.1294 21.0682 20.2912 21.0015C20.4529 20.9348 20.5997 20.8365 20.7231 20.7125C20.8465 20.5884 20.9439 20.441 21.0097 20.2789C21.0755 20.1168 21.1084 19.9432 21.1064 19.7682C21.1044 19.5933 21.0676 19.4205 20.9981 19.2599C20.9286 19.0993 20.8278 18.9542 20.7017 18.833L15.8191 13.9505V6.59702C15.8227 6.42042 15.7907 6.2449 15.7251 6.08091C15.6594 5.91692 15.5615 5.76779 15.4371 5.6424C15.3127 5.51701 15.1643 5.4179 15.0009 5.35098C14.8374 5.28406 14.6621 5.25068 14.4855 5.25284Z" />
</svg>
