<svg  viewBox="0 0 119 103" fill="none" xmlns="http://www.w3.org/2000/svg">
    <g filter="url(#filter0_d_53_4)">
        <path d="M28.5908 43.7986H35.4124V43.4613H33.5758C32.4514 43.4613 31.7393 42.899 31.7393 41.9995C31.7393 41.7371 31.8142 41.4747 31.9641 41.1374L33.9881 36.4897H48.8307L50.9296 41.6247C51.192 42.2619 51.6043 43.1989 52.0916 43.3863V43.4613H49.2055V43.7986H56.3644V43.4613H56.0646C54.8277 43.4613 54.6028 42.9365 53.8532 41.1374L45.0076 19.4733C44.8202 19.0235 44.6703 18.049 44.6703 17.2993V16.8496H41.7467L31.252 41.1374C30.6898 42.4118 30.1276 43.4613 29.1905 43.4613H28.5908V43.7986ZM34.2505 35.8151L41.1096 20.1854C41.4469 19.3983 41.5593 18.911 41.5593 18.6862H41.8967C41.8967 19.0984 41.9342 19.5857 42.1965 20.1854L48.5308 35.8151H34.2505ZM75.7352 43.7986H85.2929V43.4613H83.9811C82.182 43.4613 81.9571 43.3113 81.9571 41.5122V27.5317C81.9571 25.7326 82.182 25.5827 83.9811 25.5827H85.2929V25.1704H75.7352V25.5077H77.047C78.8461 25.5077 79.0336 25.6577 79.0336 27.4568V41.5122C79.0336 43.3113 78.8461 43.4613 77.047 43.4613H75.7352V43.7986ZM59.9931 43.7986H70.6752V43.4613H68.239C66.4399 43.4613 66.215 43.2738 66.215 41.4747V31.3548H67.3394C70.3379 31.3548 71.9871 32.7791 71.9871 35.3278V36.8646H72.3244V24.4583H71.9871V26.7071C71.9871 30.3053 69.4384 30.6801 67.3394 30.6801H66.215V19.5107C66.215 18.6862 65.8402 18.0115 65.3904 17.5617V17.5242H74.3109C77.9091 17.5242 80.8701 18.911 81.095 22.959L81.7322 22.9215L81.2075 14.6007L80.8701 14.6382L81.0201 17.1869H80.9826C80.7202 16.9245 80.5703 16.8496 79.9706 16.8496H59.9931V17.1869H61.3049C63.104 17.1869 63.2914 17.3743 63.2914 19.1734V41.4747C63.2914 43.2738 63.104 43.4613 61.3049 43.4613H59.9931V43.7986ZM38.2239 77.7986H45.0455V77.4613H43.209C42.0845 77.4613 41.3724 76.899 41.3724 75.9995C41.3724 75.7371 41.4473 75.4747 41.5973 75.1374L43.6212 70.4897H58.4638L60.5628 75.6247C60.8251 76.2619 61.2374 77.1989 61.7247 77.3863V77.4613H58.8386V77.7986H65.9975V77.4613H65.6977C64.4608 77.4613 64.2359 76.9365 63.4863 75.1374L54.6407 53.4733C54.4533 53.0235 54.3034 52.049 54.3034 51.2993V50.8496H51.3799L40.8851 75.1374C40.3229 76.4118 39.7607 77.4613 38.8236 77.4613H38.2239V77.7986ZM43.8836 69.8151L50.7427 54.1854C51.08 53.3983 51.1925 52.911 51.1925 52.6862H51.5298C51.5298 53.0984 51.5673 53.5857 51.8296 54.1854L58.164 69.8151H43.8836ZM69.6262 77.7986H80.046V77.4613H77.8721C76.073 77.4613 75.8481 77.2738 75.8481 75.4747V53.5107C75.8481 52.6487 75.6607 52.0115 75.2109 51.5617V51.5242H79.109C83.6442 51.5242 86.1179 54.2229 86.1179 59.1704C86.1179 64.1929 83.6442 66.8541 79.109 66.8541H77.3848V67.4912H77.8346C79.5212 67.4912 80.3084 68.4658 81.5452 70.3773L84.1689 74.4253C85.3308 76.2619 86.6427 78.2109 88.5542 78.2109C89.4538 78.2109 90.4658 77.7986 91.6652 76.7491L92.4898 76.037L92.2649 75.7746L91.4403 76.4867C91.0655 76.8241 90.7281 76.899 90.3533 76.899C89.1914 76.899 87.6547 74.6127 86.7176 73.0759L84.8436 70.1149C84.019 68.8406 82.4448 67.7161 80.6832 67.5287V67.3038L81.4328 67.2664C85.9305 66.8541 89.3788 63.7431 89.3788 59.1704C89.3788 54.1854 85.4058 50.8496 79.4088 50.8496H69.6262V51.1869H70.938C72.7371 51.1869 72.9246 51.3743 72.9246 53.1734V75.4747C72.9246 77.2738 72.7371 77.4613 70.938 77.4613H69.6262V77.7986ZM97.4698 77.7986H109.989V77.4613H107.215C105.416 77.4613 105.228 77.2738 105.228 75.4747V51.5242H107.402C111.001 51.5242 112.2 52.2364 112.462 55.8346L112.575 57.4088L113.249 57.3338L112.687 48.6757L112.275 48.7131L112.462 50.8496H94.996L95.1459 48.6757L94.7711 48.6382L94.2089 57.3338L94.8461 57.4088L94.996 55.8346C95.1834 52.2364 96.4578 51.5242 100.056 51.5242H102.305V75.4747C102.305 77.2738 102.117 77.4613 100.318 77.4613H97.4698V77.7986Z" fill="url(#paint0_linear_53_4)" shape-rendering="crispEdges" />
    </g>
    <g filter="url(#filter1_d_53_4)">
        <path d="M74.3723 88.0679C68.1903 91.6381 61.281 93.9764 54.2595 94C46.8821 94 41.6611 93.1891 34.7977 90.5376C27.4641 87.7045 21.1391 83.5034 16.1411 76.6158C10.3462 68.6302 7.51448 59.8211 6.80428 52.3302C6.09409 44.8393 7.47729 35.8398 10.3462 28.8436C14.3743 19.0206 18.9678 14.6391 24.4094 10.3283C29.8509 6.0175 37.617 2.6564 45.7702 1.36006C52.4897 0.29168 59.6673 1.73749 66.3928 3.90055C59.7503 1.76418 52.5676 1.95854 45.7702 3.43226C38.9729 4.90599 32.6193 8.15462 27.2725 12.8904C21.9256 17.6262 17.7503 23.7029 15.1166 30.5824C12.4829 37.4619 11.472 44.9317 12.1734 52.3302C12.8748 59.7287 15.2669 66.8275 19.1378 72.9978C23.0087 79.1681 28.2389 84.2195 34.3652 87.7045C40.4915 91.1895 47.3247 93.0005 54.2595 92.9771C61.1944 92.9538 68.2666 91.5941 74.3723 88.0679Z" fill="url(#paint1_linear_53_4)" shape-rendering="crispEdges" />
    </g>
    <defs>
        <filter id="filter0_d_53_4" x="25.4267" y="14.6006" width="93.2881" height="72.8217" filterUnits="userSpaceOnUse" color-interpolation-filters="sRGB">
            <feFlood flood-opacity="0" result="BackgroundImageFix" />
            <feColorMatrix in="SourceAlpha" type="matrix" values="0 0 0 0 0 0 0 0 0 0 0 0 0 0 0 0 0 0 127 0" result="hardAlpha" />
            <feOffset dx="1.1506" dy="4.89664" />
            <feGaussianBlur stdDeviation="2.15738" />
            <feComposite in2="hardAlpha" operator="out" />
            <feColorMatrix type="matrix" values="0 0 0 0 0 0 0 0 0 0 0 0 0 0 0 0 0 0 1 0" />
            <feBlend mode="normal" in2="BackgroundImageFix" result="effect1_dropShadow_53_4" />
            <feBlend mode="normal" in="SourceGraphic" in2="effect1_dropShadow_53_4" result="shape" />
        </filter>
        <filter id="filter1_d_53_4" x="5.48979" y="0.717324" width="76.2321" height="101.48" filterUnits="userSpaceOnUse" color-interpolation-filters="sRGB">
            <feFlood flood-opacity="0" result="BackgroundImageFix" />
            <feColorMatrix in="SourceAlpha" type="matrix" values="0 0 0 0 0 0 0 0 0 0 0 0 0 0 0 0 0 0 127 0" result="hardAlpha" />
            <feOffset dx="3.10944" dy="3.95746" />
            <feGaussianBlur stdDeviation="2.12007" />
            <feComposite in2="hardAlpha" operator="out" />
            <feColorMatrix type="matrix" values="0 0 0 0 0 0 0 0 0 0 0 0 0 0 0 0 0 0 0.6 0" />
            <feBlend mode="normal" in2="BackgroundImageFix" result="effect1_dropShadow_53_4" />
            <feBlend mode="normal" in="SourceGraphic" in2="effect1_dropShadow_53_4" result="shape" />
        </filter>
        <linearGradient id="paint0_linear_53_4" x1="57" y1="13.7986" x2="57" y2="81.7986" gradientUnits="userSpaceOnUse">
            <stop stop-color="white" />
            <stop offset="1" stop-color="#CEBFAE" stop-opacity="0.29" />
        </linearGradient>
        <linearGradient id="paint1_linear_53_4" x1="40.5219" y1="1" x2="40.5219" y2="94.0004" gradientUnits="userSpaceOnUse">
            <stop stop-color="white" />
            <stop offset="1" stop-color="#CEBFAE" stop-opacity="0.29" />
        </linearGradient>
    </defs>
</svg>